<svg width="128" height="128" viewBox="0 0 128 128" fill="none" xmlns="http://www.w3.org/2000/svg">
<path d="M91.3761 62.2385C95.4862 64.685 98.6177 67.8165 100.771 71.633C102.924 75.4495 104 79.8532 104 84.844C104 89.5413 102.875 93.945 100.624 98.055C98.3731 102.067 95.1927 105.639 91.0826 108.771C87.3639 111.609 83.107 113.81 78.3119 115.376C73.6147 116.844 68.6239 117.627 63.3394 117.725C58.055 117.725 53.0153 116.991 48.2202 115.523C43.4251 114.055 39.1682 111.853 35.4495 108.917C29.8716 104.709 26.055 99.6208 24 93.6514L44.5505 84.1101C44.5505 85.0887 44.893 86.3119 45.578 87.7798C46.263 89.2477 47.3394 90.6667 48.8073 92.0367C50.2752 93.4067 52.1835 94.581 54.5321 95.5596C56.8807 96.5382 59.7676 97.0275 63.1927 97.0275C65.9327 97.0275 68.3303 96.685 70.3853 96C72.5382 95.315 74.2997 94.4832 75.6697 93.5046C77.1376 92.4281 78.2141 91.2538 78.8991 89.9816C79.682 88.6116 80.0734 87.2416 80.0734 85.8716C80.0734 84.3058 79.5352 82.8379 78.4587 81.4679C77.4801 80.0979 75.9144 79.0214 73.7615 78.2385C69.8471 76.8685 65.6881 75.7431 61.2844 74.8624C56.9786 73.8838 52.7706 72.7095 48.6605 71.3395C44.5505 69.8716 40.7339 67.9633 37.211 65.6147C33.6881 63.2661 30.8991 59.9878 28.844 55.7798C26.9847 52.0612 26.055 48.0979 26.055 43.8899C26.055 39.1927 27.1315 34.6422 29.2844 30.2385C31.5352 25.8349 34.5688 22.1162 38.3853 19.0826C42.0061 16.2446 46.0673 14.0917 50.5688 12.6239C55.0703 11.0581 59.8165 10.2752 64.8073 10.2752C69.7982 10.2752 74.5443 11.0092 79.0459 12.4771C83.6453 13.9449 87.7553 16.0979 91.3761 18.9358C94.8991 21.578 97.6881 24.6605 99.7431 28.1835L83.0092 39.633C80.9541 36.7951 78.3609 34.5443 75.2294 32.8807C72.1957 31.1193 68.7706 30.2385 64.9541 30.2385C59.6697 30.2385 55.5596 31.4128 52.6239 33.7615C49.7859 36.1101 48.367 39.1927 48.367 43.0092C48.367 44.7706 49.1498 46.3364 50.7156 47.7064C52.3792 49.0764 54.4832 50.2997 57.0275 51.3761C59.6697 52.4526 62.6055 53.4312 65.8349 54.3119C69.0642 55.0948 72.2446 55.9266 75.3761 56.8073C78.6055 57.5902 81.6391 58.422 84.4771 59.3028C87.315 60.1835 89.6147 61.1621 91.3761 62.2385Z" fill="black"/>
</svg>
